<?xml version="1.0" encoding="UTF-8"?>
<!-- Generated by Pixelmator Pro 2.4.5 -->
<svg width="128" height="128" viewBox="0 0 128 128" xmlns="http://www.w3.org/2000/svg" xmlns:xlink="http://www.w3.org/1999/xlink">
    <path id="Doughnut" fill="#000000" fill-rule="evenodd" stroke="#000000" stroke-width="0.125" stroke-linecap="round" stroke-linejoin="round" d="M 123.691513 88.023674 C 123.43354 88.69957 122.390251 90.035049 120.180138 90.035049 C 110.343872 112.355942 88.259445 126.760445 63.874798 126.760445 C 39.490147 126.760445 17.405964 112.355942 7.569455 90.035049 C 5.419899 90.035049 4.315811 88.698105 4.057835 88.021675 C -6.071531 61.372406 2.636425 31.233864 25.416052 14.10006 C 48.195683 -3.033813 79.55658 -3.033325 102.33548 14.101334 C 125.114624 31.235924 133.821609 61.37471 123.691513 88.023674 Z M 18.49794 51.544296 C 17.544762 50.591072 15.999814 50.591072 15.046637 51.544296 L 9.524015 57.068817 C 8.57108 58.022224 8.57108 59.567978 9.524015 60.521324 C 10.477194 61.474731 12.022385 61.474731 12.975321 60.521324 L 18.49794 54.998375 C 18.955999 54.54039 19.213249 53.919144 19.213249 53.271362 C 19.213249 52.623528 18.955999 52.002281 18.49794 51.544296 Z M 21.707983 29.986343 C 20.338169 29.986343 19.227539 31.097252 19.227539 32.46769 C 19.227539 33.838074 20.338169 34.949043 21.707983 34.949043 C 23.078041 34.949043 24.188427 33.838074 24.188427 32.46769 C 24.188427 31.097252 23.078041 29.986343 21.707983 29.986343 Z M 24.684515 66.214073 C 24.684515 67.58445 25.795143 68.695419 27.164959 68.695419 C 28.535017 68.695419 29.645403 67.58445 29.645403 66.214073 C 29.645403 64.843636 28.535017 63.732719 27.164959 63.732719 C 25.795143 63.732719 24.684515 64.843636 24.684515 66.214073 Z M 37.582821 23.534828 C 37.582821 22.164391 36.472435 21.053474 35.102379 21.053474 C 33.732563 21.053474 32.621937 22.164391 32.621937 23.534828 L 32.621937 31.475151 C 32.621937 32.845528 33.732563 33.956505 35.102379 33.956505 C 36.472435 33.956505 37.582821 32.845528 37.582821 31.475151 L 37.582821 23.534828 Z M 36.88205 50.124001 L 31.343199 44.583122 C 30.387114 43.626869 28.83732 43.626869 27.881477 44.583122 C 26.925392 45.539436 26.925392 47.089859 27.881477 48.046112 L 33.420326 53.58699 C 34.376171 54.543243 35.925964 54.543243 36.88205 53.58699 C 37.837891 52.630676 37.837891 51.080254 36.88205 50.124001 Z M 25.462561 78.620834 C 18.849174 78.620834 19.059431 88.283684 11.842892 89.822655 C 21.370314 109.98188 41.67725 122.824936 63.967815 122.788643 C 86.258377 122.752296 106.523651 109.843155 115.985184 89.652908 C 112.286324 88.13678 111.035202 82.590988 105.426102 82.590988 C 96.486092 82.590988 95.491249 100.952995 89.531403 100.952995 C 83.571312 100.952995 82.847038 88.049965 72.645004 88.049965 C 60.724827 88.049965 61.16399 110.878403 48.805374 110.878403 C 35.003307 110.878403 34.402573 78.620834 25.462561 78.620834 Z M 63.145924 13.331482 C 62.192745 12.378258 60.647797 12.378258 59.694618 13.331482 L 54.172001 18.856003 C 53.219063 19.80941 53.219063 21.355164 54.172001 22.30851 C 55.125179 23.261917 56.670368 23.261917 57.623302 22.30851 L 63.145924 16.785561 C 63.603981 16.327583 63.861233 15.706337 63.861233 15.058556 C 63.861233 14.410713 63.603981 13.789467 63.145924 13.331482 Z M 56.434193 36.437859 C 56.434193 37.808235 57.544823 38.919205 58.914635 38.919205 C 60.284695 38.919205 61.395081 37.808235 61.395081 36.437859 C 61.395081 35.067421 60.284695 33.956505 58.914635 33.956505 C 57.544823 33.956505 56.434193 35.067421 56.434193 36.437859 Z M 63.875523 47.852074 C 54.286331 47.852074 46.512421 55.628647 46.512421 65.221527 C 46.512421 74.814415 54.286331 82.590988 63.875523 82.590988 C 73.464958 82.590988 81.238632 74.814415 81.238632 65.221527 C 81.238632 55.628647 73.464958 47.852074 63.875523 47.852074 Z M 90.459625 23.325401 L 84.920776 17.784523 C 83.964691 16.82827 82.414902 16.82827 81.459061 17.784523 C 80.502975 18.740837 80.502975 20.29126 81.459061 21.247513 L 86.99791 26.788391 C 87.953751 27.744644 89.50354 27.744644 90.459625 26.788391 C 91.415474 25.832077 91.415474 24.281654 90.459625 23.325401 Z M 94.136932 44.874451 L 86.199516 44.874451 C 84.829697 44.874451 83.71907 45.985367 83.71907 47.355804 C 83.71907 48.726181 84.829697 49.837151 86.199516 49.837151 L 94.136932 49.837151 C 95.506989 49.837151 96.617378 48.726181 96.617378 47.355804 C 96.617378 45.985367 95.506989 44.874451 94.136932 44.874451 Z M 100.381401 71.959892 L 94.842552 66.419014 C 93.886467 65.462761 92.336678 65.462761 91.380829 66.419014 C 90.424751 67.375328 90.424751 68.925751 91.380829 69.882004 L 96.919685 75.422882 C 97.875526 76.379135 99.425316 76.379135 100.381401 75.422882 C 101.337242 74.466568 101.337242 72.916145 100.381401 71.959892 Z M 107.03524 30.978882 C 107.03524 29.608444 105.924858 28.497528 104.554794 28.497528 C 103.184982 28.497528 102.074356 29.608444 102.074356 30.978882 L 102.074356 38.919205 C 102.074356 40.289581 103.184982 41.400558 104.554794 41.400558 C 105.924858 41.400558 107.03524 40.289581 107.03524 38.919205 L 107.03524 30.978882 Z M 118.211769 53.033104 C 117.258591 52.07988 115.713646 52.07988 114.760468 53.033104 L 109.237846 58.557625 C 108.284912 59.511032 108.284912 61.056786 109.237846 62.010132 C 110.191025 62.963539 111.736214 62.963539 112.689148 62.010132 L 118.211769 56.48719 C 118.66983 56.029205 118.927078 55.407959 118.927078 54.760178 C 118.927078 54.112335 118.66983 53.491089 118.211769 53.033104 Z M 118.941368 68.695419 C 117.571556 68.695419 116.46093 69.806335 116.46093 71.176773 C 116.46093 72.54715 117.571556 73.658127 118.941368 73.658127 C 120.311424 73.658127 121.421814 72.54715 121.421814 71.176773 C 121.421814 69.806335 120.311424 68.695419 118.941368 68.695419 Z"/>
</svg>
